<svg width="50" height="50" viewBox="0 0 50 50" fill="none" xmlns="http://www.w3.org/2000/svg">
<path d="M0 5C0 2.23858 2.23858 0 5 0H45C47.7614 0 50 2.23858 50 5V45C50 47.7614 47.7614 50 45 50H5C2.23858 50 0 47.7614 0 45V5Z" fill="#62F9CE"/>
<path d="M16.6667 35.4167C17.2569 35.4167 17.7521 35.2167 18.1521 34.8167C18.5521 34.4167 18.7514 33.9222 18.75 33.3333V22.9167C18.75 22.3264 18.55 21.8313 18.15 21.4313C17.75 21.0313 17.2556 20.8319 16.6667 20.8333C16.0764 20.8333 15.5813 21.0333 15.1813 21.4333C14.7813 21.8333 14.5819 22.3278 14.5833 22.9167V33.3333C14.5833 33.9236 14.7833 34.4188 15.1833 34.8188C15.5833 35.2188 16.0778 35.4181 16.6667 35.4167ZM25 35.4167C25.5903 35.4167 26.0854 35.2167 26.4854 34.8167C26.8854 34.4167 27.0847 33.9222 27.0833 33.3333V16.6667C27.0833 16.0764 26.8833 15.5813 26.4833 15.1813C26.0833 14.7813 25.5889 14.5819 25 14.5833C24.4097 14.5833 23.9146 14.7833 23.5146 15.1833C23.1146 15.5833 22.9153 16.0778 22.9167 16.6667V33.3333C22.9167 33.9236 23.1167 34.4188 23.5167 34.8188C23.9167 35.2188 24.4111 35.4181 25 35.4167ZM33.3333 35.4167C33.9236 35.4167 34.4188 35.2167 34.8188 34.8167C35.2188 34.4167 35.4181 33.9222 35.4167 33.3333V29.1667C35.4167 28.5764 35.2167 28.0813 34.8167 27.6813C34.4167 27.2813 33.9222 27.0819 33.3333 27.0833C32.7431 27.0833 32.2479 27.2833 31.8479 27.6833C31.4479 28.0833 31.2486 28.5778 31.25 29.1667V33.3333C31.25 33.9236 31.45 34.4188 31.85 34.8188C32.25 35.2188 32.7444 35.4181 33.3333 35.4167ZM10.4167 43.75C9.27084 43.75 8.28959 43.3417 7.47292 42.525C6.65625 41.7083 6.24861 40.7278 6.25 39.5833V10.4167C6.25 9.27084 6.65834 8.28959 7.475 7.47292C8.29167 6.65625 9.27223 6.24861 10.4167 6.25H39.5833C40.7292 6.25 41.7104 6.65834 42.5271 7.475C43.3438 8.29167 43.7514 9.27223 43.75 10.4167V39.5833C43.75 40.7292 43.3417 41.7104 42.525 42.5271C41.7083 43.3438 40.7278 43.7514 39.5833 43.75H10.4167ZM10.4167 39.5833H39.5833V10.4167H10.4167V39.5833Z" fill="#047857"/>
</svg>
