<?xml version="1.0" standalone="no"?>
<!DOCTYPE svg PUBLIC "-//W3C//DTD SVG 20010904//EN"
 "http://www.w3.org/TR/2001/REC-SVG-20010904/DTD/svg10.dtd">
<svg version="1.0" xmlns="http://www.w3.org/2000/svg"
 width="700.000000pt" height="700.000000pt" viewBox="0 0 700.000000 700.000000"
 preserveAspectRatio="xMidYMid meet">
<metadata>
Created by potrace 1.14, written by Peter Selinger 2001-2017
</metadata>
<g transform="translate(0.000000,700.000000) scale(0.100000,-0.100000)"
fill="#000000" stroke="none">
<path d="M1374 6120 c-127 -19 -227 -71 -325 -169 -80 -80 -123 -150 -156
-257 -17 -56 -18 -151 -18 -2194 0 -2043 1 -2138 18 -2194 33 -107 76 -177
156 -257 80 -80 150 -123 257 -156 56 -17 151 -18 2194 -18 2043 0 2138 1
2194 18 107 33 177 76 257 156 80 80 123 150 156 257 17 56 18 151 18 2194 0
2043 -1 2138 -18 2194 -30 96 -73 170 -138 240 -76 82 -145 128 -245 163 l-79
28 -2110 1 c-1160 1 -2133 -2 -2161 -6z m4166 -2620 l0 -2040 -2040 0 -2040 0
0 2040 0 2040 2040 0 2040 0 0 -2040z"/>
<path d="M3407 4946 c-55 -20 -111 -60 -141 -99 -59 -77 -56 -9 -56 -1347 0
-1356 -4 -1271 64 -1354 19 -23 58 -55 87 -71 48 -27 63 -30 139 -30 76 0 91
3 139 30 29 16 68 47 87 68 68 80 64 0 64 1357 0 1357 4 1277 -64 1357 -53 60
-126 96 -210 100 -45 2 -85 -2 -109 -11z"/>
<path d="M2214 4061 c-58 -27 -111 -77 -142 -135 l-27 -51 0 -810 c0 -804 0
-810 21 -855 106 -224 433 -223 535 2 l24 53 0 800 0 800 -22 47 c-29 63 -101
132 -160 152 -64 22 -177 21 -229 -3z"/>
<path d="M4569 3195 c-63 -20 -141 -92 -170 -157 -24 -53 -24 -55 -24 -413 0
-358 0 -360 24 -413 102 -225 429 -226 535 -2 20 43 21 59 21 415 0 356 -1
372 -21 415 -28 59 -87 118 -143 143 -59 26 -162 31 -222 12z"/>
</g>
</svg>
